<svg width="276" height="16" viewBox="0 0 276 16" fill="none" xmlns="http://www.w3.org/2000/svg">
<path d="M6.37867 2H3.5C3.10218 2 2.72064 2.15804 2.43934 2.43934C2.15804 2.72064 2 3.10218 2 3.5V6.37867C2 6.77667 2.158 7.15867 2.43933 7.43933L8.82667 13.8267C9.29267 14.2927 10.0133 14.408 10.5647 14.0467C11.9524 13.1378 13.1378 11.9524 14.0467 10.5647C14.408 10.0133 14.2927 9.29267 13.8267 8.82667L7.44 2.44C7.30069 2.30051 7.13524 2.18986 6.95313 2.11436C6.77102 2.03886 6.57581 2 6.37867 2Z" stroke="#666666" stroke-linecap="round" stroke-linejoin="round"/>
<path d="M4 4H4.00533V4.00533H4V4Z" stroke="black" stroke-width="1.5" stroke-linecap="round" stroke-linejoin="round"/>
<path d="M25.368 12.5V4.1H26.1L29.94 10.652H29.556L33.36 4.1H34.092V12.5H33.24V5.432H33.444L29.94 11.432H29.52L25.992 5.432H26.22V12.5H25.368ZM40.5969 12.5V11.108L40.5609 10.88V8.552C40.5609 8.016 40.4089 7.604 40.1049 7.316C39.8089 7.028 39.3649 6.884 38.7729 6.884C38.3649 6.884 37.9769 6.952 37.6089 7.088C37.2409 7.224 36.9289 7.404 36.6729 7.628L36.2889 6.992C36.6089 6.72 36.9929 6.512 37.4409 6.368C37.8889 6.216 38.3609 6.14 38.8569 6.14C39.6729 6.14 40.3009 6.344 40.7409 6.752C41.1889 7.152 41.4129 7.764 41.4129 8.588V12.5H40.5969ZM38.4249 12.56C37.9529 12.56 37.5409 12.484 37.1889 12.332C36.8449 12.172 36.5809 11.956 36.3969 11.684C36.2129 11.404 36.1209 11.084 36.1209 10.724C36.1209 10.396 36.1969 10.1 36.3489 9.836C36.5089 9.564 36.7649 9.348 37.1169 9.188C37.4769 9.02 37.9569 8.936 38.5569 8.936H40.7289V9.572H38.5809C37.9729 9.572 37.5489 9.68 37.3089 9.896C37.0769 10.112 36.9609 10.38 36.9609 10.7C36.9609 11.06 37.1009 11.348 37.3809 11.564C37.6609 11.78 38.0529 11.888 38.5569 11.888C39.0369 11.888 39.4489 11.78 39.7929 11.564C40.1449 11.34 40.4009 11.02 40.5609 10.604L40.7529 11.192C40.5929 11.608 40.3129 11.94 39.9129 12.188C39.5209 12.436 39.0249 12.56 38.4249 12.56ZM45.7191 12.56C45.1271 12.56 44.6711 12.4 44.3511 12.08C44.0311 11.76 43.8711 11.308 43.8711 10.724V4.808H44.7231V10.676C44.7231 11.044 44.8151 11.328 44.9991 11.528C45.1911 11.728 45.4631 11.828 45.8151 11.828C46.1911 11.828 46.5031 11.72 46.7511 11.504L47.0511 12.116C46.8831 12.268 46.6791 12.38 46.4391 12.452C46.2071 12.524 45.9671 12.56 45.7191 12.56ZM42.7431 6.908V6.2H46.6431V6.908H42.7431ZM51.8541 12.56C51.3021 12.56 50.8061 12.436 50.3661 12.188C49.9261 11.932 49.5781 11.564 49.3221 11.084C49.0661 10.604 48.9381 10.024 48.9381 9.344C48.9381 8.656 49.0661 8.076 49.3221 7.604C49.5861 7.124 49.9381 6.76 50.3781 6.512C50.8181 6.264 51.3101 6.14 51.8541 6.14C52.4541 6.14 52.9901 6.276 53.4621 6.548C53.9421 6.812 54.3181 7.184 54.5901 7.664C54.8621 8.144 54.9981 8.704 54.9981 9.344C54.9981 9.976 54.8621 10.536 54.5901 11.024C54.3181 11.504 53.9421 11.88 53.4621 12.152C52.9901 12.424 52.4541 12.56 51.8541 12.56ZM48.6021 12.5V3.596H49.4541V8.06L49.3341 9.332L49.4181 10.604V12.5H48.6021ZM51.7941 11.804C52.2421 11.804 52.6421 11.704 52.9941 11.504C53.3461 11.296 53.6261 11.008 53.8341 10.64C54.0421 10.264 54.1461 9.832 54.1461 9.344C54.1461 8.848 54.0421 8.416 53.8341 8.048C53.6261 7.68 53.3461 7.396 52.9941 7.196C52.6421 6.988 52.2421 6.884 51.7941 6.884C51.3461 6.884 50.9421 6.988 50.5821 7.196C50.2301 7.396 49.9501 7.68 49.7421 8.048C49.5421 8.416 49.4421 8.848 49.4421 9.344C49.4421 9.832 49.5421 10.264 49.7421 10.64C49.9501 11.008 50.2301 11.296 50.5821 11.504C50.9421 11.704 51.3461 11.804 51.7941 11.804ZM59.3389 12.56C58.8029 12.56 58.3349 12.46 57.9349 12.26C57.5349 12.06 57.2229 11.76 56.9989 11.36C56.7829 10.96 56.6749 10.46 56.6749 9.86V6.2H57.5269V9.764C57.5269 10.436 57.6909 10.944 58.0189 11.288C58.3549 11.624 58.8229 11.792 59.4229 11.792C59.8629 11.792 60.2429 11.704 60.5629 11.528C60.8909 11.344 61.1389 11.08 61.3069 10.736C61.4829 10.392 61.5709 9.98 61.5709 9.5V6.2H62.4229V12.5H61.6069V10.772L61.7389 11.084C61.5389 11.548 61.2269 11.912 60.8029 12.176C60.3869 12.432 59.8989 12.56 59.3389 12.56ZM67.3654 12.56C66.7574 12.56 66.2094 12.424 65.7214 12.152C65.2414 11.872 64.8614 11.492 64.5814 11.012C64.3014 10.524 64.1614 9.968 64.1614 9.344C64.1614 8.712 64.3014 8.156 64.5814 7.676C64.8614 7.196 65.2414 6.82 65.7214 6.548C66.2014 6.276 66.7494 6.14 67.3654 6.14C67.9894 6.14 68.5414 6.276 69.0214 6.548C69.5094 6.82 69.8894 7.196 70.1614 7.676C70.4414 8.156 70.5814 8.712 70.5814 9.344C70.5814 9.968 70.4414 10.524 70.1614 11.012C69.8894 11.492 69.5094 11.872 69.0214 12.152C68.5334 12.424 67.9814 12.56 67.3654 12.56ZM67.3654 11.804C67.8214 11.804 68.2254 11.704 68.5774 11.504C68.9294 11.296 69.2054 11.008 69.4054 10.64C69.6134 10.264 69.7174 9.832 69.7174 9.344C69.7174 8.848 69.6134 8.416 69.4054 8.048C69.2054 7.68 68.9294 7.396 68.5774 7.196C68.2254 6.988 67.8254 6.884 67.3774 6.884C66.9294 6.884 66.5294 6.988 66.1774 7.196C65.8254 7.396 65.5454 7.68 65.3374 8.048C65.1294 8.416 65.0254 8.848 65.0254 9.344C65.0254 9.832 65.1294 10.264 65.3374 10.64C65.5454 11.008 65.8254 11.296 66.1774 11.504C66.5294 11.704 66.9254 11.804 67.3654 11.804ZM74.3128 12.56C73.7208 12.56 73.2648 12.4 72.9448 12.08C72.6248 11.76 72.4648 11.308 72.4648 10.724V4.808H73.3168V10.676C73.3168 11.044 73.4088 11.328 73.5928 11.528C73.7848 11.728 74.0568 11.828 74.4088 11.828C74.7848 11.828 75.0968 11.72 75.3448 11.504L75.6448 12.116C75.4768 12.268 75.2728 12.38 75.0328 12.452C74.8008 12.524 74.5608 12.56 74.3128 12.56ZM71.3368 6.908V6.2H75.2368V6.908H71.3368ZM83.5524 6.14C84.0644 6.14 84.5124 6.24 84.8964 6.44C85.2884 6.632 85.5924 6.928 85.8084 7.328C86.0324 7.728 86.1444 8.232 86.1444 8.84V12.5H85.2924V8.924C85.2924 8.26 85.1244 7.76 84.7884 7.424C84.4604 7.08 83.9964 6.908 83.3964 6.908C82.9484 6.908 82.5564 7 82.2204 7.184C81.8924 7.36 81.6364 7.62 81.4524 7.964C81.2764 8.3 81.1884 8.708 81.1884 9.188V12.5H80.3364V3.596H81.1884V7.928L81.0204 7.604C81.2204 7.148 81.5404 6.792 81.9804 6.536C82.4204 6.272 82.9444 6.14 83.5524 6.14ZM88.4458 12.5V6.2H89.2978V12.5H88.4458ZM88.8778 4.808C88.7018 4.808 88.5538 4.748 88.4338 4.628C88.3138 4.508 88.2538 4.364 88.2538 4.196C88.2538 4.028 88.3138 3.888 88.4338 3.776C88.5538 3.656 88.7018 3.596 88.8778 3.596C89.0538 3.596 89.2018 3.652 89.3218 3.764C89.4418 3.876 89.5018 4.016 89.5018 4.184C89.5018 4.36 89.4418 4.508 89.3218 4.628C89.2098 4.748 89.0618 4.808 88.8778 4.808ZM90.9845 12.5V11.936L95.1845 6.62L95.3645 6.908H91.0565V6.2H96.0365V6.752L91.8485 12.08L91.6325 11.792H96.1205V12.5H90.9845ZM105.669 6.14C106.181 6.14 106.625 6.24 107.001 6.44C107.385 6.632 107.681 6.928 107.889 7.328C108.105 7.728 108.213 8.232 108.213 8.84V12.5H107.361V8.924C107.361 8.26 107.201 7.76 106.881 7.424C106.569 7.08 106.125 6.908 105.549 6.908C105.117 6.908 104.741 7 104.421 7.184C104.109 7.36 103.865 7.62 103.689 7.964C103.521 8.3 103.437 8.708 103.437 9.188V12.5H102.585V8.924C102.585 8.26 102.425 7.76 102.105 7.424C101.785 7.08 101.337 6.908 100.761 6.908C100.337 6.908 99.9654 7 99.6454 7.184C99.3254 7.36 99.0774 7.62 98.9014 7.964C98.7334 8.3 98.6494 8.708 98.6494 9.188V12.5H97.7974V6.2H98.6134V7.904L98.4814 7.604C98.6734 7.148 98.9814 6.792 99.4054 6.536C99.8374 6.272 100.345 6.14 100.929 6.14C101.545 6.14 102.069 6.296 102.501 6.608C102.933 6.912 103.213 7.372 103.341 7.988L103.005 7.856C103.189 7.344 103.513 6.932 103.977 6.62C104.449 6.3 105.013 6.14 105.669 6.14ZM114.472 12.5V11.108L114.436 10.88V8.552C114.436 8.016 114.284 7.604 113.98 7.316C113.684 7.028 113.24 6.884 112.648 6.884C112.24 6.884 111.852 6.952 111.484 7.088C111.116 7.224 110.804 7.404 110.548 7.628L110.164 6.992C110.484 6.72 110.868 6.512 111.316 6.368C111.764 6.216 112.236 6.14 112.732 6.14C113.548 6.14 114.176 6.344 114.616 6.752C115.064 7.152 115.288 7.764 115.288 8.588V12.5H114.472ZM112.3 12.56C111.828 12.56 111.416 12.484 111.064 12.332C110.72 12.172 110.456 11.956 110.272 11.684C110.088 11.404 109.996 11.084 109.996 10.724C109.996 10.396 110.072 10.1 110.224 9.836C110.384 9.564 110.64 9.348 110.992 9.188C111.352 9.02 111.832 8.936 112.432 8.936H114.604V9.572H112.456C111.848 9.572 111.424 9.68 111.184 9.896C110.952 10.112 110.836 10.38 110.836 10.7C110.836 11.06 110.976 11.348 111.256 11.564C111.536 11.78 111.928 11.888 112.432 11.888C112.912 11.888 113.324 11.78 113.668 11.564C114.02 11.34 114.276 11.02 114.436 10.604L114.628 11.192C114.468 11.608 114.188 11.94 113.788 12.188C113.396 12.436 112.9 12.56 112.3 12.56ZM119.594 12.56C119.002 12.56 118.546 12.4 118.226 12.08C117.906 11.76 117.746 11.308 117.746 10.724V4.808H118.598V10.676C118.598 11.044 118.69 11.328 118.874 11.528C119.066 11.728 119.338 11.828 119.69 11.828C120.066 11.828 120.378 11.72 120.626 11.504L120.926 12.116C120.758 12.268 120.554 12.38 120.314 12.452C120.082 12.524 119.842 12.56 119.594 12.56ZM116.618 6.908V6.2H120.518V6.908H116.618ZM122.477 12.5V6.2H123.329V12.5H122.477ZM122.909 4.808C122.733 4.808 122.585 4.748 122.465 4.628C122.345 4.508 122.285 4.364 122.285 4.196C122.285 4.028 122.345 3.888 122.465 3.776C122.585 3.656 122.733 3.596 122.909 3.596C123.085 3.596 123.233 3.652 123.353 3.764C123.473 3.876 123.533 4.016 123.533 4.184C123.533 4.36 123.473 4.508 123.353 4.628C123.241 4.748 123.093 4.808 122.909 4.808Z" fill="#666666"/>
<rect x="138" y="16" width="16" height="1" transform="rotate(-90 138 16)" fill="#666666" fill-opacity="0.2"/>
<path d="M154.5 1.5V3M161.5 1.5V3M152 12V4.5C152 4.10218 152.158 3.72064 152.439 3.43934C152.721 3.15804 153.102 3 153.5 3H162.5C162.898 3 163.279 3.15804 163.561 3.43934C163.842 3.72064 164 4.10218 164 4.5V12M152 12C152 12.3978 152.158 12.7794 152.439 13.0607C152.721 13.342 153.102 13.5 153.5 13.5H162.5C162.898 13.5 163.279 13.342 163.561 13.0607C163.842 12.7794 164 12.3978 164 12M152 12V7C152 6.60218 152.158 6.22064 152.439 5.93934C152.721 5.65804 153.102 5.5 153.5 5.5H162.5C162.898 5.5 163.279 5.65804 163.561 5.93934C163.842 6.22064 164 6.60218 164 7V12M158 8H158.005V8.00533H158V8ZM158 9.5H158.005V9.50533H158V9.5ZM158 11H158.005V11.0053H158V11ZM156.5 9.5H156.505V9.50533H156.5V9.5ZM156.5 11H156.505V11.0053H156.5V11ZM155 9.5H155.005V9.50533H155V9.5ZM155 11H155.005V11.0053H155V11ZM159.5 8H159.505V8.00533H159.5V8ZM159.5 9.5H159.505V9.50533H159.5V9.5ZM159.5 11H159.505V11.0053H159.5V11ZM161 8H161.005V8.00533H161V8ZM161 9.5H161.005V9.50533H161V9.5Z" stroke="#666666" stroke-linecap="round" stroke-linejoin="round"/>
<path d="M173.368 12V3.6H174.1L177.94 10.152H177.556L181.36 3.6H182.092V12H181.24V4.932H181.444L177.94 10.932H177.52L173.992 4.932H174.22V12H173.368ZM188.597 12V10.608L188.561 10.38V8.052C188.561 7.516 188.409 7.104 188.105 6.816C187.809 6.528 187.365 6.384 186.773 6.384C186.365 6.384 185.977 6.452 185.609 6.588C185.241 6.724 184.929 6.904 184.673 7.128L184.289 6.492C184.609 6.22 184.993 6.012 185.441 5.868C185.889 5.716 186.361 5.64 186.857 5.64C187.673 5.64 188.301 5.844 188.741 6.252C189.189 6.652 189.413 7.264 189.413 8.088V12H188.597ZM186.425 12.06C185.953 12.06 185.541 11.984 185.189 11.832C184.845 11.672 184.581 11.456 184.397 11.184C184.213 10.904 184.121 10.584 184.121 10.224C184.121 9.896 184.197 9.6 184.349 9.336C184.509 9.064 184.765 8.848 185.117 8.688C185.477 8.52 185.957 8.436 186.557 8.436H188.729V9.072H186.581C185.973 9.072 185.549 9.18 185.309 9.396C185.077 9.612 184.961 9.88 184.961 10.2C184.961 10.56 185.101 10.848 185.381 11.064C185.661 11.28 186.053 11.388 186.557 11.388C187.037 11.388 187.449 11.28 187.793 11.064C188.145 10.84 188.401 10.52 188.561 10.104L188.753 10.692C188.593 11.108 188.313 11.44 187.913 11.688C187.521 11.936 187.025 12.06 186.425 12.06ZM191.658 14.388C191.362 14.388 191.078 14.34 190.806 14.244C190.542 14.148 190.314 14.004 190.122 13.812L190.518 13.176C190.678 13.328 190.85 13.444 191.034 13.524C191.226 13.612 191.438 13.656 191.67 13.656C191.95 13.656 192.19 13.576 192.39 13.416C192.598 13.264 192.794 12.992 192.978 12.6L193.386 11.676L193.482 11.544L196.074 5.7H196.914L193.758 12.756C193.582 13.164 193.386 13.488 193.17 13.728C192.962 13.968 192.734 14.136 192.486 14.232C192.238 14.336 191.962 14.388 191.658 14.388ZM193.338 12.18L190.434 5.7H191.322L193.89 11.484L193.338 12.18ZM202.154 12V3.96L202.538 4.368H200.174V3.6H203.018V12H202.154ZM204.882 9.792V9.168L209.334 3.6H210.294L205.878 9.168L205.41 9.024H212.166V9.792H204.882ZM209.622 12V9.792L209.646 9.024V7.08H210.486V12H209.622Z" fill="#666666"/>
<rect x="226" y="16" width="16" height="1" transform="rotate(-90 226 16)" fill="#666666" fill-opacity="0.2"/>
<path d="M240.035 7.71467C239.988 7.57639 239.988 7.42694 240.035 7.28867C240.959 4.50667 243.584 2.5 246.677 2.5C249.769 2.5 252.393 4.50467 253.319 7.28533C253.366 7.42333 253.366 7.57267 253.319 7.71133C252.395 10.4933 249.771 12.5 246.677 12.5C243.585 12.5 240.961 10.4953 240.035 7.71467Z" stroke="#666666" stroke-linecap="round" stroke-linejoin="round"/>
<path d="M248.677 7.5C248.677 8.03043 248.466 8.53914 248.091 8.91421C247.716 9.28929 247.208 9.5 246.677 9.5C246.147 9.5 245.638 9.28929 245.263 8.91421C244.888 8.53914 244.677 8.03043 244.677 7.5C244.677 6.96957 244.888 6.46086 245.263 6.08579C245.638 5.71071 246.147 5.5 246.677 5.5C247.208 5.5 247.716 5.71071 248.091 6.08579C248.466 6.46086 248.677 6.96957 248.677 7.5Z" stroke="#666666" stroke-linecap="round" stroke-linejoin="round"/>
<path d="M260.834 9.792V9.168L265.286 3.6H266.246L261.83 9.168L261.362 9.024H268.118V9.792H260.834ZM265.574 12V9.792L265.598 9.024V7.08H266.438V12H265.574ZM271.54 12.072C270.94 12.072 270.368 11.976 269.824 11.784C269.28 11.584 268.848 11.32 268.528 10.992L268.948 10.308C269.212 10.588 269.572 10.82 270.028 11.004C270.492 11.188 270.992 11.28 271.528 11.28C272.24 11.28 272.78 11.124 273.148 10.812C273.524 10.492 273.712 10.076 273.712 9.564C273.712 9.204 273.624 8.896 273.448 8.64C273.28 8.376 272.992 8.172 272.584 8.028C272.176 7.884 271.616 7.812 270.904 7.812H269.116L269.548 3.6H274.144V4.368H269.896L270.34 3.948L269.968 7.476L269.524 7.044H271.096C271.944 7.044 272.624 7.148 273.136 7.356C273.648 7.564 274.016 7.856 274.24 8.232C274.472 8.6 274.588 9.032 274.588 9.528C274.588 10 274.476 10.432 274.252 10.824C274.028 11.208 273.692 11.512 273.244 11.736C272.796 11.96 272.228 12.072 271.54 12.072Z" fill="#666666"/>
</svg>
