<svg width="61" height="15" viewBox="0 0 61 15" fill="none" xmlns="http://www.w3.org/2000/svg">
<path d="M3.5 1.5V3M10.5 1.5V3M1 12V4.5C1 4.10218 1.15804 3.72064 1.43934 3.43934C1.72064 3.15804 2.10218 3 2.5 3H11.5C11.8978 3 12.2794 3.15804 12.5607 3.43934C12.842 3.72064 13 4.10218 13 4.5V12M1 12C1 12.3978 1.15804 12.7794 1.43934 13.0607C1.72064 13.342 2.10218 13.5 2.5 13.5H11.5C11.8978 13.5 12.2794 13.342 12.5607 13.0607C12.842 12.7794 13 12.3978 13 12M1 12V7C1 6.60218 1.15804 6.22064 1.43934 5.93934C1.72064 5.65804 2.10218 5.5 2.5 5.5H11.5C11.8978 5.5 12.2794 5.65804 12.5607 5.93934C12.842 6.22064 13 6.60218 13 7V12M7 8H7.00533V8.00533H7V8ZM7 9.5H7.00533V9.50533H7V9.5ZM7 11H7.00533V11.0053H7V11ZM5.5 9.5H5.50533V9.50533H5.5V9.5ZM5.5 11H5.50533V11.0053H5.5V11ZM4 9.5H4.00533V9.50533H4V9.5ZM4 11H4.00533V11.0053H4V11ZM8.5 8H8.50533V8.00533H8.5V8ZM8.5 9.5H8.50533V9.50533H8.5V9.5ZM8.5 11H8.50533V11.0053H8.5V11ZM10 8H10.0053V8.00533H10V8ZM10 9.5H10.0053V9.50533H10V9.5Z" stroke="#666666" stroke-linecap="round" stroke-linejoin="round"/>
<path d="M22.368 12V3.6H23.1L26.94 10.152H26.556L30.36 3.6H31.092V12H30.24V4.932H30.444L26.94 10.932H26.52L22.992 4.932H23.22V12H22.368ZM37.5969 12V10.608L37.5609 10.38V8.052C37.5609 7.516 37.4089 7.104 37.1049 6.816C36.8089 6.528 36.3649 6.384 35.7729 6.384C35.3649 6.384 34.9769 6.452 34.6089 6.588C34.2409 6.724 33.9289 6.904 33.6729 7.128L33.2889 6.492C33.6089 6.22 33.9929 6.012 34.4409 5.868C34.8889 5.716 35.3609 5.64 35.8569 5.64C36.6729 5.64 37.3009 5.844 37.7409 6.252C38.1889 6.652 38.4129 7.264 38.4129 8.088V12H37.5969ZM35.4249 12.06C34.9529 12.06 34.5409 11.984 34.1889 11.832C33.8449 11.672 33.5809 11.456 33.3969 11.184C33.2129 10.904 33.1209 10.584 33.1209 10.224C33.1209 9.896 33.1969 9.6 33.3489 9.336C33.5089 9.064 33.7649 8.848 34.1169 8.688C34.4769 8.52 34.9569 8.436 35.5569 8.436H37.7289V9.072H35.5809C34.9729 9.072 34.5489 9.18 34.3089 9.396C34.0769 9.612 33.9609 9.88 33.9609 10.2C33.9609 10.56 34.1009 10.848 34.3809 11.064C34.6609 11.28 35.0529 11.388 35.5569 11.388C36.0369 11.388 36.4489 11.28 36.7929 11.064C37.1449 10.84 37.4009 10.52 37.5609 10.104L37.7529 10.692C37.5929 11.108 37.3129 11.44 36.9129 11.688C36.5209 11.936 36.0249 12.06 35.4249 12.06ZM40.6579 14.388C40.3619 14.388 40.0779 14.34 39.8059 14.244C39.5419 14.148 39.3139 14.004 39.1219 13.812L39.5179 13.176C39.6779 13.328 39.8499 13.444 40.0339 13.524C40.2259 13.612 40.4379 13.656 40.6699 13.656C40.9499 13.656 41.1899 13.576 41.3899 13.416C41.5979 13.264 41.7939 12.992 41.9779 12.6L42.3859 11.676L42.4819 11.544L45.0739 5.7H45.9139L42.7579 12.756C42.5819 13.164 42.3859 13.488 42.1699 13.728C41.9619 13.968 41.7339 14.136 41.4859 14.232C41.2379 14.336 40.9619 14.388 40.6579 14.388ZM42.3379 12.18L39.4339 5.7H40.3219L42.8899 11.484L42.3379 12.18ZM51.1544 12V3.96L51.5384 4.368H49.1744V3.6H52.0184V12H51.1544ZM53.8703 12V11.388L57.3623 7.968C57.6823 7.656 57.9223 7.384 58.0823 7.152C58.2423 6.912 58.3503 6.688 58.4063 6.48C58.4623 6.272 58.4903 6.076 58.4903 5.892C58.4903 5.404 58.3223 5.02 57.9863 4.74C57.6583 4.46 57.1703 4.32 56.5223 4.32C56.0263 4.32 55.5863 4.396 55.2023 4.548C54.8263 4.7 54.5023 4.936 54.2303 5.256L53.6183 4.728C53.9463 4.344 54.3663 4.048 54.8783 3.84C55.3903 3.632 55.9623 3.528 56.5943 3.528C57.1623 3.528 57.6543 3.62 58.0703 3.804C58.4863 3.98 58.8063 4.24 59.0303 4.584C59.2623 4.928 59.3783 5.332 59.3783 5.796C59.3783 6.068 59.3383 6.336 59.2583 6.6C59.1863 6.864 59.0503 7.144 58.8503 7.44C58.6583 7.728 58.3743 8.056 57.9983 8.424L54.7943 11.568L54.5543 11.232H59.7623V12H53.8703Z" fill="#666666"/>
</svg>
