<svg width="124" height="16" viewBox="0 0 124 16" fill="none" xmlns="http://www.w3.org/2000/svg">
<path d="M4.5 2V3.5M11.5 2V3.5M2 12.5V5C2 4.60218 2.15804 4.22064 2.43934 3.93934C2.72064 3.65804 3.10218 3.5 3.5 3.5H12.5C12.8978 3.5 13.2794 3.65804 13.5607 3.93934C13.842 4.22064 14 4.60218 14 5V12.5M2 12.5C2 12.8978 2.15804 13.2794 2.43934 13.5607C2.72064 13.842 3.10218 14 3.5 14H12.5C12.8978 14 13.2794 13.842 13.5607 13.5607C13.842 13.2794 14 12.8978 14 12.5M2 12.5V7.5C2 7.10218 2.15804 6.72064 2.43934 6.43934C2.72064 6.15804 3.10218 6 3.5 6H12.5C12.8978 6 13.2794 6.15804 13.5607 6.43934C13.842 6.72064 14 7.10218 14 7.5V12.5M8 8.5H8.00533V8.50533H8V8.5ZM8 10H8.00533V10.0053H8V10ZM8 11.5H8.00533V11.5053H8V11.5ZM6.5 10H6.50533V10.0053H6.5V10ZM6.5 11.5H6.50533V11.5053H6.5V11.5ZM5 10H5.00533V10.0053H5V10ZM5 11.5H5.00533V11.5053H5V11.5ZM9.5 8.5H9.50533V8.50533H9.5V8.5ZM9.5 10H9.50533V10.0053H9.5V10ZM9.5 11.5H9.50533V11.5053H9.5V11.5ZM11 8.5H11.0053V8.50533H11V8.5ZM11 10H11.0053V10.0053H11V10Z" stroke="#666666" stroke-linecap="round" stroke-linejoin="round"/>
<path d="M23.368 12.5V4.1H24.1L27.94 10.652H27.556L31.36 4.1H32.092V12.5H31.24V5.432H31.444L27.94 11.432H27.52L23.992 5.432H24.22V12.5H23.368ZM38.5969 12.5V11.108L38.5609 10.88V8.552C38.5609 8.016 38.4089 7.604 38.1049 7.316C37.8089 7.028 37.3649 6.884 36.7729 6.884C36.3649 6.884 35.9769 6.952 35.6089 7.088C35.2409 7.224 34.9289 7.404 34.6729 7.628L34.2889 6.992C34.6089 6.72 34.9929 6.512 35.4409 6.368C35.8889 6.216 36.3609 6.14 36.8569 6.14C37.6729 6.14 38.3009 6.344 38.7409 6.752C39.1889 7.152 39.4129 7.764 39.4129 8.588V12.5H38.5969ZM36.4249 12.56C35.9529 12.56 35.5409 12.484 35.1889 12.332C34.8449 12.172 34.5809 11.956 34.3969 11.684C34.2129 11.404 34.1209 11.084 34.1209 10.724C34.1209 10.396 34.1969 10.1 34.3489 9.836C34.5089 9.564 34.7649 9.348 35.1169 9.188C35.4769 9.02 35.9569 8.936 36.5569 8.936H38.7289V9.572H36.5809C35.9729 9.572 35.5489 9.68 35.3089 9.896C35.0769 10.112 34.9609 10.38 34.9609 10.7C34.9609 11.06 35.1009 11.348 35.3809 11.564C35.6609 11.78 36.0529 11.888 36.5569 11.888C37.0369 11.888 37.4489 11.78 37.7929 11.564C38.1449 11.34 38.4009 11.02 38.5609 10.604L38.7529 11.192C38.5929 11.608 38.3129 11.94 37.9129 12.188C37.5209 12.436 37.0249 12.56 36.4249 12.56ZM41.6579 14.888C41.3619 14.888 41.0779 14.84 40.8059 14.744C40.5419 14.648 40.3139 14.504 40.1219 14.312L40.5179 13.676C40.6779 13.828 40.8499 13.944 41.0339 14.024C41.2259 14.112 41.4379 14.156 41.6699 14.156C41.9499 14.156 42.1899 14.076 42.3899 13.916C42.5979 13.764 42.7939 13.492 42.9779 13.1L43.3859 12.176L43.4819 12.044L46.0739 6.2H46.9139L43.7579 13.256C43.5819 13.664 43.3859 13.988 43.1699 14.228C42.9619 14.468 42.7339 14.636 42.4859 14.732C42.2379 14.836 41.9619 14.888 41.6579 14.888ZM43.3379 12.68L40.4339 6.2H41.3219L43.8899 11.984L43.3379 12.68ZM52.1544 12.5V4.46L52.5384 4.868H50.1744V4.1H53.0184V12.5H52.1544ZM54.8703 12.5V11.888L58.3623 8.468C58.6823 8.156 58.9223 7.884 59.0823 7.652C59.2423 7.412 59.3503 7.188 59.4063 6.98C59.4623 6.772 59.4903 6.576 59.4903 6.392C59.4903 5.904 59.3223 5.52 58.9863 5.24C58.6583 4.96 58.1703 4.82 57.5223 4.82C57.0263 4.82 56.5863 4.896 56.2023 5.048C55.8263 5.2 55.5023 5.436 55.2303 5.756L54.6183 5.228C54.9463 4.844 55.3663 4.548 55.8783 4.34C56.3903 4.132 56.9623 4.028 57.5943 4.028C58.1623 4.028 58.6543 4.12 59.0703 4.304C59.4863 4.48 59.8063 4.74 60.0303 5.084C60.2623 5.428 60.3783 5.832 60.3783 6.296C60.3783 6.568 60.3383 6.836 60.2583 7.1C60.1863 7.364 60.0503 7.644 59.8503 7.94C59.6583 8.228 59.3743 8.556 58.9983 8.924L55.7943 12.068L55.5543 11.732H60.7623V12.5H54.8703Z" fill="#666666"/>
<rect x="74" y="16" width="16" height="1" transform="rotate(-90 74 16)" fill="#666666" fill-opacity="0.2"/>
<path d="M88.3573 8.21467C88.3113 8.07639 88.3113 7.92694 88.3573 7.78867C89.282 5.00667 91.9067 3 95 3C98.092 3 100.715 5.00467 101.642 7.78533C101.689 7.92333 101.689 8.07267 101.642 8.21133C100.718 10.9933 98.0933 13 95 13C91.908 13 89.284 10.9953 88.3573 8.21467Z" stroke="#666666" stroke-linecap="round" stroke-linejoin="round"/>
<path d="M97 8C97 8.53043 96.7893 9.03914 96.4142 9.41421C96.0391 9.78929 95.5304 10 95 10C94.4696 10 93.9609 9.78929 93.5858 9.41421C93.2107 9.03914 93 8.53043 93 8C93 7.46957 93.2107 6.96086 93.5858 6.58579C93.9609 6.21071 94.4696 6 95 6C95.5304 6 96.0391 6.21071 96.4142 6.58579C96.7893 6.96086 97 7.46957 97 8Z" stroke="#666666" stroke-linecap="round" stroke-linejoin="round"/>
<path d="M112.816 12.572C112.144 12.572 111.564 12.476 111.076 12.284C110.596 12.092 110.224 11.816 109.96 11.456C109.704 11.088 109.576 10.656 109.576 10.16C109.576 9.68 109.7 9.272 109.948 8.936C110.204 8.592 110.572 8.328 111.052 8.144C111.54 7.96 112.128 7.868 112.816 7.868C113.496 7.868 114.08 7.96 114.568 8.144C115.056 8.328 115.428 8.592 115.684 8.936C115.948 9.272 116.08 9.68 116.08 10.16C116.08 10.656 115.948 11.088 115.684 11.456C115.42 11.816 115.044 12.092 114.556 12.284C114.068 12.476 113.488 12.572 112.816 12.572ZM112.816 11.84C113.56 11.84 114.14 11.688 114.556 11.384C114.98 11.08 115.192 10.668 115.192 10.148C115.192 9.628 114.98 9.22 114.556 8.924C114.14 8.62 113.56 8.468 112.816 8.468C112.072 8.468 111.492 8.62 111.076 8.924C110.66 9.22 110.452 9.628 110.452 10.148C110.452 10.668 110.66 11.08 111.076 11.384C111.492 11.688 112.072 11.84 112.816 11.84ZM112.816 8.36C112.192 8.36 111.66 8.276 111.22 8.108C110.788 7.94 110.456 7.7 110.224 7.388C109.992 7.068 109.876 6.688 109.876 6.248C109.876 5.784 109.996 5.388 110.236 5.06C110.484 4.724 110.828 4.468 111.268 4.292C111.708 4.116 112.224 4.028 112.816 4.028C113.408 4.028 113.924 4.116 114.364 4.292C114.812 4.468 115.16 4.724 115.408 5.06C115.656 5.388 115.78 5.784 115.78 6.248C115.78 6.688 115.664 7.068 115.432 7.388C115.2 7.7 114.86 7.94 114.412 8.108C113.972 8.276 113.44 8.36 112.816 8.36ZM112.816 7.784C113.472 7.784 113.984 7.648 114.352 7.376C114.72 7.104 114.904 6.74 114.904 6.284C114.904 5.804 114.712 5.432 114.328 5.168C113.952 4.896 113.448 4.76 112.816 4.76C112.184 4.76 111.68 4.896 111.304 5.168C110.928 5.432 110.74 5.8 110.74 6.272C110.74 6.736 110.92 7.104 111.28 7.376C111.648 7.648 112.16 7.784 112.816 7.784ZM119.892 4.028C120.636 4.028 121.264 4.196 121.776 4.532C122.288 4.86 122.676 5.336 122.94 5.96C123.204 6.584 123.336 7.34 123.336 8.228C123.336 9.172 123.172 9.968 122.844 10.616C122.524 11.264 122.076 11.752 121.5 12.08C120.924 12.408 120.256 12.572 119.496 12.572C119.12 12.572 118.76 12.536 118.416 12.464C118.08 12.392 117.776 12.276 117.504 12.116L117.852 11.42C118.068 11.564 118.316 11.668 118.596 11.732C118.884 11.788 119.18 11.816 119.484 11.816C120.388 11.816 121.108 11.528 121.644 10.952C122.188 10.376 122.46 9.516 122.46 8.372C122.46 8.188 122.448 7.968 122.424 7.712C122.408 7.456 122.364 7.2 122.292 6.944L122.592 7.172C122.512 7.588 122.34 7.944 122.076 8.24C121.82 8.528 121.5 8.748 121.116 8.9C120.74 9.052 120.32 9.128 119.856 9.128C119.304 9.128 118.812 9.024 118.38 8.816C117.956 8.608 117.624 8.316 117.384 7.94C117.144 7.564 117.024 7.12 117.024 6.608C117.024 6.08 117.148 5.624 117.396 5.24C117.644 4.856 117.984 4.56 118.416 4.352C118.856 4.136 119.348 4.028 119.892 4.028ZM119.928 4.76C119.528 4.76 119.172 4.836 118.86 4.988C118.556 5.132 118.316 5.34 118.14 5.612C117.964 5.884 117.876 6.208 117.876 6.584C117.876 7.136 118.064 7.576 118.44 7.904C118.824 8.232 119.34 8.396 119.988 8.396C120.42 8.396 120.796 8.316 121.116 8.156C121.444 7.996 121.696 7.776 121.872 7.496C122.056 7.216 122.148 6.904 122.148 6.56C122.148 6.248 122.064 5.956 121.896 5.684C121.728 5.412 121.48 5.192 121.152 5.024C120.824 4.848 120.416 4.76 119.928 4.76Z" fill="#666666"/>
</svg>
